<svg id="alien2" enable-background="new 0 0 300 300" height="512" viewBox="0 0 300 300" width="512" xmlns="http://www.w3.org/2000/svg"><path d="m225.377 23.463c-9.383-3.283-19.656 1.672-22.938 11.035-1.594 4.539-1.32 9.424.766 13.756 1.18 2.457 2.906 4.516 4.969 6.174l-2.62 7.479c-14.622-10.206-33.385-16.356-53.829-16.356-21.583 0-41.238 6.905-56.179 18.152l-3.475-9.394c5.674-4.748 8.105-12.682 5.4-20.008-.004 0-.004 0-.004-.002-3.445-9.309-13.832-14.072-23.125-10.637-4.508 1.668-8.098 4.992-10.109 9.359-2.008 4.369-2.199 9.258-.531 13.766 1.668 4.51 4.992 8.1 9.359 10.109 2.398 1.104 4.953 1.658 7.516 1.658 1.448 0 2.89-.244 4.316-.599l4.146 11.208c-13.456 12.578-21.724 29.154-21.724 47.364 0 33.781 27.895 95.203 64.82 112.403v44.621c0 2.209 1.789 4 4 4s4-1.791 4-4v-41.651c3.795 1.05 7.661 1.651 11.59 1.651 4.211 0 8.354-.659 12.41-1.859v41.859c0 2.209 1.789 4 4 4s4-1.791 4-4v-44.99c36.52-17.718 64-78.502 64-112.034 0-19.202-9.151-36.618-23.934-49.408l3.216-9.178c1.331.305 2.666.512 3.992.512 7.434 0 14.41-4.646 17.004-12.049 0-.002 0-.002 0-.002 3.28-9.369-1.673-19.658-11.036-22.939zm-148.973 26.166c-2.426-1.115-4.273-3.109-5.199-5.617-.926-2.504-.82-5.221.297-7.646 1.113-2.426 3.109-4.273 5.613-5.199 1.141-.422 2.309-.623 3.461-.623 4.066 0 7.895 2.5 9.387 6.531 1.914 5.172-.738 10.938-5.91 12.85-2.504.923-5.227.817-7.649-.296zm151.731 66.898c0 35.898-35.371 109.023-76.41 109.023s-76.41-73.125-76.41-109.023c0-34.725 34.277-62.977 76.41-62.977s76.41 28.253 76.41 62.977zm.73-72.769c-1.828 5.205-7.562 7.955-12.746 6.131-2.523-.883-4.547-2.695-5.707-5.102-1.156-2.408-1.309-5.121-.426-7.641 1.445-4.115 5.32-6.695 9.449-6.695 1.094 0 2.207.18 3.297.562 5.203 1.823 7.953 7.54 6.133 12.745z"/><path d="m177.971 191.432c-2.012-.916-4.379-.02-5.297 1.992-2.52 5.562-9.098 8.047-14.664 5.523-2.016-.914-4.387-.016-5.293 1.994-.91 2.014-.016 4.383 1.996 5.295 2.543 1.15 5.211 1.695 7.836 1.695 7.266 0 14.223-4.17 17.414-11.207.91-2.011.019-4.382-1.992-5.292z"/><path d="m198.076 118.432c-5-.725-10.285.791-14.117 4.045-3.828-3.252-9.172-4.766-14.109-4.045-5.5.799-10.004 4.443-12.047 9.75-2.145 5.562-1.145 11.842 2.613 16.387l17.887 21.65c1.398 1.695 3.461 2.666 5.656 2.666s4.258-.971 5.656-2.666l17.887-21.648c3.758-4.547 4.762-10.826 2.617-16.387-2.043-5.307-6.547-8.953-12.043-9.752zm3.262 21.043-17.379 21.033-17.379-21.033c-1.918-2.322-2.422-5.547-1.316-8.416 1.008-2.609 3.098-4.326 5.742-4.711.461-.066.938-.102 1.422-.102 3.301 0 6.367 1.646 8.199 4.406.738 1.117 1.992 1.789 3.332 1.789s2.59-.67 3.332-1.785c2.105-3.166 5.977-4.828 9.633-4.307 2.637.383 4.727 2.1 5.734 4.711 1.102 2.868.598 6.092-1.32 8.415z"/><path d="m130.076 118.432c-4.992-.725-10.285.791-14.117 4.045-3.828-3.252-9.176-4.766-14.109-4.045-5.5.799-10.004 4.443-12.047 9.75-2.145 5.562-1.145 11.842 2.613 16.387l17.887 21.65c1.398 1.695 3.461 2.666 5.656 2.666s4.258-.971 5.656-2.666l17.887-21.648c3.758-4.547 4.762-10.826 2.617-16.387-2.043-5.307-6.547-8.953-12.043-9.752zm3.262 21.043-17.379 21.033-17.379-21.033c-1.918-2.322-2.422-5.547-1.316-8.416 1.008-2.609 3.098-4.326 5.742-4.711.461-.066.938-.102 1.422-.102 3.301 0 6.367 1.646 8.199 4.406.738 1.117 1.992 1.789 3.332 1.789s2.59-.67 3.332-1.785c2.105-3.166 5.98-4.828 9.633-4.307 2.637.383 4.727 2.1 5.734 4.711 1.102 2.868.598 6.092-1.32 8.415z"/><circle cx="178.135" cy="99.551" r="6"/><circle cx="200.135" cy="101.551" r="4"/><circle cx="188.135" cy="85.551" r="4"/></svg>