<?xml version="1.0" encoding="iso-8859-1"?>
<!-- Generator: Adobe Illustrator 19.0.0, SVG Export Plug-In . SVG Version: 6.00 Build 0)  -->
<svg version="1.1" id="Layer_1" xmlns="http://www.w3.org/2000/svg" xmlns:xlink="http://www.w3.org/1999/xlink" x="0px" y="0px"
	 viewBox="0 0 512 512" style="enable-background:new 0 0 512 512;" xml:space="preserve">
<g>
	<g>
		<path d="M503.742,99.097H371.613c-4.561,0-8.258,3.696-8.258,8.258v140.387h-27.527V41.29c0-22.768-18.522-41.29-41.29-41.29
			h-77.075c-22.768,0-41.29,18.522-41.29,41.29v206.452h-27.527V107.355c0-4.562-3.697-8.258-8.258-8.258H8.258
			c-4.561,0-8.258,3.696-8.258,8.258v297.29c0,4.562,3.697,8.258,8.258,8.258h132.129c4.561,0,8.258-3.696,8.258-8.258V264.258
			h27.527v33.032h-2.753c-4.561,0-8.258,3.696-8.258,8.258v189.935h-2.753c-4.561,0-8.258,3.696-8.258,8.258
			s3.697,8.258,8.258,8.258h187.183c4.561,0,8.258-3.696,8.258-8.258s-3.697-8.258-8.258-8.258h-2.753V305.548
			c0-4.562-3.697-8.258-8.258-8.258h-2.753v-33.032h27.527v140.387c0,4.562,3.697,8.258,8.258,8.258h132.129
			c4.561,0,8.258-3.696,8.258-8.258v-297.29C512,102.793,508.303,99.097,503.742,99.097z M82.581,115.613h16.516v49.548H82.581
			V115.613z M49.548,115.613h16.516v49.548H49.548V115.613z M49.548,181.677h16.516v49.548H49.548V181.677z M16.516,115.613h16.516
			v49.548H16.516V115.613z M16.516,181.677h16.516v49.548H16.516V181.677z M16.516,280.774h16.516v49.548H16.516V280.774z
			 M66.065,396.387H49.548v-24.774c0-4.562-3.697-8.258-8.258-8.258c-4.561,0-8.258,3.696-8.258,8.258v24.774H16.516v-49.548h49.548
			V396.387z M66.065,330.323H49.548v-49.548h16.516V330.323z M99.097,396.387H82.581v-49.548h16.516V396.387z M99.097,330.323
			H82.581v-49.548h16.516V330.323z M132.129,396.387h-16.516v-49.548h16.516V396.387z M132.129,330.323h-16.516v-49.548h16.516
			V330.323z M132.129,264.258H16.516v-16.516h115.613V264.258z M132.129,231.226h-16.516v-24.774c0-4.562-3.697-8.258-8.258-8.258
			c-4.561,0-8.258,3.696-8.258,8.258v24.774H82.581v-49.548h49.548V231.226z M132.129,165.161h-16.516v-49.548h16.516V165.161z
			 M192.688,41.29c0-13.66,11.113-24.774,24.774-24.774h77.075c13.661,0,24.774,11.114,24.774,24.774v57.806H192.688V41.29z
			 M192.688,115.613h126.624V297.29H192.688V115.613z M330.323,495.484H181.677v-82.581h16.516c4.561,0,8.258-3.696,8.258-8.258
			c0-4.562-3.697-8.258-8.258-8.258h-16.516v-82.581h66.065v82.581h-16.516c-4.561,0-8.258,3.696-8.258,8.258
			c0,4.562,3.697,8.258,8.258,8.258h99.097V495.484z M330.323,396.387h-66.065v-82.581h66.065V396.387z M445.935,115.613h16.516
			v49.548h-16.516V115.613z M412.903,115.613h16.516v49.548h-16.516V115.613z M412.903,181.677h49.548v49.548h-16.516v-24.774
			c0-4.562-3.697-8.258-8.258-8.258s-8.258,3.696-8.258,8.258v24.774h-16.516V181.677z M379.871,115.613h16.516v49.548h-16.516
			V115.613z M379.871,181.677h16.516v49.548h-16.516V181.677z M396.387,396.387h-16.516v-49.548h16.516V396.387z M396.387,330.323
			h-16.516v-49.548h16.516V330.323z M429.419,396.387h-16.516v-49.548h16.516V396.387z M429.419,330.323h-16.516v-49.548h16.516
			V330.323z M462.452,396.387h-16.516v-49.548h16.516V396.387z M462.452,330.323h-16.516v-49.548h16.516V330.323z M495.484,396.387
			h-16.516v-49.548h16.516V396.387z M495.484,330.323h-16.516v-49.548h16.516V330.323z M495.484,264.258H379.871v-16.516h115.613
			V264.258z M495.484,231.226h-16.516v-49.548h16.516V231.226z M495.484,165.161h-16.516v-49.548h16.516V165.161z"/>
	</g>
</g>
<g>
	<g>
		<circle cx="297.29" cy="335.828" r="8.258"/>
	</g>
</g>
<g>
	<g>
		<circle cx="297.29" cy="374.366" r="8.258"/>
	</g>
</g>
<g>
	<g>
		<path d="M294.538,66.065h-77.075c-4.561,0-8.258,3.696-8.258,8.258s3.697,8.258,8.258,8.258h77.075
			c4.561,0,8.258-3.696,8.258-8.258S299.098,66.065,294.538,66.065z"/>
	</g>
</g>
<g>
</g>
<g>
</g>
<g>
</g>
<g>
</g>
<g>
</g>
<g>
</g>
<g>
</g>
<g>
</g>
<g>
</g>
<g>
</g>
<g>
</g>
<g>
</g>
<g>
</g>
<g>
</g>
<g>
</g>
</svg>
