<?xml version="1.0"?>
<svg xmlns="http://www.w3.org/2000/svg" id="outline" viewBox="0 0 512 512" width="512" height="512"><path d="M303.0293,184a24.80859,24.80859,0,0,0-17.65674,7.31348l-11.0293,11.02929,11.31348,11.31446,11.0293-11.0293a8.97038,8.97038,0,1,1,12.68652,12.68555l-11.0293,11.02929,11.31348,11.31446,11.0293-11.0293A24.97075,24.97075,0,0,0,303.0293,184Z"/><rect x="141.46161" y="173.68664" width="15.99963" height="15.2068" transform="translate(-84.74395 162.51134) rotate(-45.91252)"/><path d="M154.34326,458.34277A73.45662,73.45662,0,0,1,102.05908,480H32V409.94141a73.45566,73.45566,0,0,1,21.65674-52.28418,74.27673,74.27673,0,0,1,43.31347-21.11231l-1.94042-15.88183a90.353,90.353,0,0,0-52.68653,25.67968A89.354,89.354,0,0,0,16,409.94141V488a8.00008,8.00008,0,0,0,8,8h78.05908a89.35245,89.35245,0,0,0,63.59766-26.34277,90.34954,90.34954,0,0,0,25.6792-52.68653l-15.88184-1.9414A74.27348,74.27348,0,0,1,154.34326,458.34277Z"/><path d="M95.26855,374.85254l-8.25781-13.70508A63.55341,63.55341,0,0,0,56,416v32a8.00008,8.00008,0,0,0,8,8H96a63.552,63.552,0,0,0,54.852-31.01074l-13.7041-8.25781A47.67735,47.67735,0,0,1,96,440H72V416A47.67535,47.67535,0,0,1,95.26855,374.85254Z"/><path d="M488,16H435.07812a111.26912,111.26912,0,0,0-79.1958,32.80371L348.686,56h-22.8628a79.48108,79.48108,0,0,0-56.56836,23.43066l-78.828,78.82862L97.853,136.21777a7.99543,7.99543,0,0,0-7.50977,2.125l-16,16a8.00034,8.00034,0,0,0,0,11.31446L128.686,220,98.34326,250.34277a8.00034,8.00034,0,0,0,0,11.31446L124.68591,288l-10.34265,10.34277a8.00034,8.00034,0,0,0,0,11.31446L140.686,336l-26.34278,26.34277a8.00034,8.00034,0,0,0,0,11.31446l24,24a8.00063,8.00063,0,0,0,11.31348,0L176,371.314l26.34326,26.34327a8.00063,8.00063,0,0,0,11.31348,0L223.99988,387.314l26.34338,26.34327a8.00063,8.00063,0,0,0,11.31348,0L292,383.314l54.34326,54.34327a8.00063,8.00063,0,0,0,11.31348,0l16-16a8.00035,8.00035,0,0,0,2.12549-7.50977l-22.04151-92.57422,78.82764-78.82812A79.47293,79.47293,0,0,0,456,186.17676v-24.117l5.84229-5.6477A112.58089,112.58089,0,0,0,496,75.88574V24A8.00008,8.00008,0,0,0,488,16ZM325.82324,72H344V90.17676a63.57627,63.57627,0,0,1-18.74512,45.2539l-1.25512,1.25513-44.686-44.686,1.25464-1.25464A63.5844,63.5844,0,0,1,325.82324,72ZM237.29352,327.39258a30.59067,30.59067,0,0,0-11.24018-6.13184l19.6034-19.60351a8.00034,8.00034,0,0,0,0-11.31446l-24-24a8.00182,8.00182,0,0,0-11.31348,0l-19.60382,19.60376a30.58851,30.58851,0,0,0-6.132-11.24l99.71387-99.71435,23.51782-7.83911,37.00794,37.00805-7.83924,23.51758Zm74.3847-178.38477-23.51751,7.83887-36.84693-36.84692,16.686-16.686L312.686,148Zm51.31385,51.314,1.00787-1.00782,44.68591,44.6858-16.686,16.686-36.84674-36.84668ZM356.833,168.20312l-6.329,18.98682-25.69391-25.69385,18.98773-6.3291A10.30577,10.30577,0,0,1,356.833,168.20312ZM239.99988,131.314,272.686,164l-11.18226,11.18213L208.70325,162.6106ZM98.49609,152.81836,209.4505,179.2356l-25.4046,25.405L168.625,188.96875l-11.4043,11.22266,21.07715,21.41992A7.999,7.999,0,0,0,183.96777,224H184a8.00206,8.00206,0,0,0,5.65674-2.34277l38.07013-38.07007,20.49292,4.87915L184,252.686,91.314,160ZM115.314,256,140,231.314,172.686,264l-1.59107,1.59106a30.59276,30.59276,0,0,0-31.37915,7.37867l-3.716,3.71606Zm15.99952,48,19.71582-19.71582a14.62724,14.62724,0,1,1,20.68652,20.68555l-19.71606,19.71655ZM144,380.68652,131.31348,368,216,283.31348,228.68652,296Zm64,0-20.68628-20.68628,19.72083-19.72094a14.62711,14.62711,0,0,1,20.68127,20.69043Zm48,16-20.68628-20.68676,3.71558-3.71558A30.59139,30.59139,0,0,0,246.409,340.905L248,339.314,280.6861,372Zm96,24L259.314,328l64.21985-64.21973,4.87928,20.49268-38.06983,38.06982a7.99974,7.99974,0,0,0,.0459,11.35938l21.42041,21.07715,11.22168-11.4043-15.67187-15.4209,25.40515-25.40478,26.4176,110.95459ZM336.81769,250.49634,348,239.314,380.68591,272l-31.29669,31.29688ZM440,186.17676a63.57627,63.57627,0,0,1-18.74512,45.2539l-1.25512,1.25513-44.686-44.686,1.25464-1.25464A63.5844,63.5844,0,0,1,421.82324,168H440Zm40-110.291a96.49712,96.49712,0,0,1-29.27783,69.02246L443.38605,152H421.82324a79.38323,79.38323,0,0,0-48.71771,16.55615A26.28919,26.28919,0,0,0,343.444,138.894,79.37767,79.37767,0,0,0,360,90.17676V67.314l7.1958-7.1958A95.36925,95.36925,0,0,1,435.07812,32H480Z"/></svg>
